<svg xmlns="http://www.w3.org/2000/svg" xmlns:svg="http://www.w3.org/2000/svg" id="svg4" width="24" height="24" version="1.1" viewBox="0 0 24 24"><metadata id="metadata10"/><path style="opacity:1;fill:#f0f;fill-opacity:1;fill-rule:nonzero;stroke:none;stroke-width:10;stroke-linecap:round;stroke-linejoin:round;stroke-miterlimit:4;stroke-dasharray:none;stroke-dashoffset:0;stroke-opacity:.99737531;paint-order:markers stroke fill" id="rect824-9" d="M 6 6 L 6 8 L 8 8 L 8 6 L 6 6 z M 8 8 L 8 10 L 10 10 L 10 8 L 8 8 z M 10 8 L 12 8 L 12 6 L 10 6 L 10 8 z M 10 10 L 10 12 L 12 12 L 12 10 L 10 10 z M 10 12 L 8 12 L 8 14 L 10 14 L 10 12 z M 10 14 L 10 16 L 12 16 L 12 14 L 10 14 z M 10 16 L 8 16 L 8 18 L 10 18 L 10 16 z M 10 18 L 10 20 L 12 20 L 12 18 L 10 18 z M 8 18 L 6 18 L 6 20 L 8 20 L 8 18 z M 6 18 L 6 16 L 4 16 L 4 18 L 6 18 z M 6 16 L 8 16 L 8 14 L 6 14 L 6 16 z M 6 14 L 6 12 L 4 12 L 4 14 L 6 14 z M 6 12 L 8 12 L 8 10 L 6 10 L 6 12 z M 6 10 L 6 8 L 4 8 L 4 10 L 6 10 z"/></svg>