<svg xmlns="http://www.w3.org/2000/svg" xmlns:xlink="http://www.w3.org/1999/xlink" width="24" height="24" x="0" y="0" enable-background="new 0 0 24 24" version="1.1" viewBox="0 0 24 24" xml:space="preserve"><g id="add"><path fill="none" d="M0,0h24v24H0V0z" display="none"/><path fill="#00C03E" d="M22.5,8.784h-7.283V1.5c0-0.313-0.254-0.567-0.567-0.567H9.351c-0.313,0-0.567,0.254-0.567,0.567v7.284H1.5 c-0.313,0-0.567,0.254-0.567,0.567v5.299c0,0.313,0.254,0.567,0.567,0.567h7.284V22.5c0,0.313,0.254,0.567,0.567,0.567h5.299 c0.313,0,0.567-0.254,0.567-0.567v-7.283H22.5c0.313,0,0.567-0.254,0.567-0.567V9.351C23.067,9.038,22.813,8.784,22.5,8.784z"/></g></svg>