<svg xmlns="http://www.w3.org/2000/svg" xmlns:xlink="http://www.w3.org/1999/xlink" width="24" height="24" x="0" y="0" enable-background="new 0 0 24 24" version="1.1" viewBox="0 0 24 24" xml:space="preserve"><g id="ic_exit_to_app"><polygon fill="#FFF" points="16.495 12.092 11.574 7.172 10.13 8.616 12.598 11.083 2.833 11.083 2.833 13.125 12.598 13.125 10.13 15.592 11.574 17.036 16.495 12.116 16.483 12.104"/><path fill="#FFF" d="M18.682,2.975H5.152c-1.272,0-2.307,1.035-2.307,2.307v3.801h2.126V5.282c0-0.1,0.081-0.181,0.181-0.181 h13.53c0.1,0,0.181,0.081,0.181,0.181v13.436c0,0.1-0.081,0.181-0.181,0.181H5.152c-0.1,0-0.181-0.081-0.181-0.181v-3.593H2.845 v3.593c0,1.272,1.035,2.307,2.307,2.307h13.53c1.272,0,2.308-1.034,2.308-2.307V5.282C20.989,4.01,19.954,2.975,18.682,2.975z"/></g></svg>